<?xml version="1.0" encoding="utf-8"?>
<!-- Generator: Adobe Illustrator 19.2.0, SVG Export Plug-In . SVG Version: 6.00 Build 0)  -->
<svg version="1.1" id="Layer_1" xmlns="http://www.w3.org/2000/svg" xmlns:xlink="http://www.w3.org/1999/xlink" x="0px" y="0px"
	 viewBox="0 0 16 9" style="enable-background:new 0 0 16 9;" xml:space="preserve">
<style type="text/css">
	.st0{fill:#FFF0E0;}
	.st1{fill:#FFF8E8;}
	.st2{fill:#FFEBDC;}
</style>
<g>
	<g id="XMLID_1_">
		<g>
			<rect x="15" y="7" width="1" height="1"/>
			<rect x="15" y="6" width="1" height="1"/>
			<rect x="15" y="5" width="1" height="1"/>
			<rect x="15" y="3" width="1" height="1"/>
			<rect x="15" y="2" width="1" height="1"/>
			<rect x="15" y="1" width="1" height="1"/>
			<rect x="14" y="8" width="1" height="1"/>
			<rect x="14" y="7" class="st0" width="1" height="1"/>
			<rect x="14" y="6" class="st0" width="1" height="1"/>
			<rect x="14" y="5" class="st0" width="1" height="1"/>
			<rect x="14" y="4" width="1" height="1"/>
			<rect x="14" y="3" class="st1" width="1" height="1"/>
			<rect x="14" y="2" class="st1" width="1" height="1"/>
			<rect x="14" y="1" class="st1" width="1" height="1"/>
			<rect x="14" width="1" height="1"/>
			<rect x="13" y="8" width="1" height="1"/>
			<rect x="13" y="7" class="st2" width="1" height="1"/>
			<rect x="13" y="6" class="st0" width="1" height="1"/>
			<rect x="13" y="5" class="st0" width="1" height="1"/>
			<rect x="13" y="4" class="st0" width="1" height="1"/>
			<rect x="13" y="3" class="st0" width="1" height="1"/>
			<rect x="13" y="2" class="st0" width="1" height="1"/>
			<rect x="13" y="1" class="st1" width="1" height="1"/>
			<rect x="13" width="1" height="1"/>
			<rect x="12" y="7" width="1" height="1"/>
			<rect x="12" y="6" class="st2" width="1" height="1"/>
			<rect x="12" y="5" class="st0" width="1" height="1"/>
			<rect x="12" y="4" class="st0" width="1" height="1"/>
			<rect x="12" y="3" class="st0" width="1" height="1"/>
			<rect x="12" y="2" class="st0" width="1" height="1"/>
			<rect x="12" y="1" width="1" height="1"/>
			<rect x="11" y="6" width="1" height="1"/>
			<rect x="11" y="5" class="st2" width="1" height="1"/>
			<rect x="11" y="4" class="st0" width="1" height="1"/>
			<rect x="11" y="3" class="st0" width="1" height="1"/>
			<rect x="11" y="2" width="1" height="1"/>
			<rect x="10" y="6" width="1" height="1"/>
			<rect x="10" y="5" class="st2" width="1" height="1"/>
			<rect x="10" y="4" class="st0" width="1" height="1"/>
			<rect x="10" y="3" class="st0" width="1" height="1"/>
			<rect x="10" y="2" width="1" height="1"/>
			<rect x="9" y="6" width="1" height="1"/>
			<rect x="9" y="5" class="st2" width="1" height="1"/>
			<rect x="9" y="4" class="st0" width="1" height="1"/>
			<rect x="9" y="3" class="st0" width="1" height="1"/>
			<rect x="9" y="2" width="1" height="1"/>
			<rect x="8" y="6" width="1" height="1"/>
			<rect x="8" y="5" class="st2" width="1" height="1"/>
			<rect x="8" y="4" class="st0" width="1" height="1"/>
			<rect x="8" y="3" class="st0" width="1" height="1"/>
			<rect x="8" y="2" width="1" height="1"/>
			<rect x="7" y="6" width="1" height="1"/>
			<rect x="7" y="5" class="st2" width="1" height="1"/>
			<rect x="7" y="4" class="st0" width="1" height="1"/>
			<rect x="7" y="3" class="st0" width="1" height="1"/>
			<rect x="7" y="2" width="1" height="1"/>
			<rect x="6" y="6" width="1" height="1"/>
			<rect x="6" y="5" class="st2" width="1" height="1"/>
			<rect x="6" y="4" class="st0" width="1" height="1"/>
			<rect x="6" y="3" class="st0" width="1" height="1"/>
			<rect x="6" y="2" width="1" height="1"/>
			<rect x="5" y="6" width="1" height="1"/>
			<rect x="5" y="5" class="st2" width="1" height="1"/>
			<rect x="5" y="4" class="st0" width="1" height="1"/>
			<rect x="5" y="3" class="st0" width="1" height="1"/>
			<rect x="5" y="2" width="1" height="1"/>
			<rect x="4" y="6" width="1" height="1"/>
			<rect x="4" y="5" class="st2" width="1" height="1"/>
			<rect x="4" y="4" class="st0" width="1" height="1"/>
			<rect x="4" y="3" class="st0" width="1" height="1"/>
			<rect x="4" y="2" width="1" height="1"/>
			<rect x="3" y="7" width="1" height="1"/>
			<rect x="3" y="6" class="st2" width="1" height="1"/>
			<rect x="3" y="5" class="st0" width="1" height="1"/>
			<rect x="3" y="4" class="st0" width="1" height="1"/>
			<rect x="3" y="3" class="st0" width="1" height="1"/>
			<rect x="3" y="2" class="st1" width="1" height="1"/>
			<rect x="3" y="1" width="1" height="1"/>
			<rect x="2" y="8" width="1" height="1"/>
			<rect x="2" y="7" class="st2" width="1" height="1"/>
			<rect x="2" y="6" class="st0" width="1" height="1"/>
			<rect x="2" y="5" class="st0" width="1" height="1"/>
			<rect x="2" y="4" class="st0" width="1" height="1"/>
			<rect x="2" y="3" class="st0" width="1" height="1"/>
			<rect x="2" y="2" class="st0" width="1" height="1"/>
			<rect x="2" y="1" class="st1" width="1" height="1"/>
			<rect x="2" width="1" height="1"/>
			<rect x="1" y="8" width="1" height="1"/>
			<rect x="1" y="7" class="st2" width="1" height="1"/>
			<rect x="1" y="6" class="st2" width="1" height="1"/>
			<rect x="1" y="5" class="st0" width="1" height="1"/>
			<rect x="1" y="4" width="1" height="1"/>
			<rect x="1" y="3" class="st0" width="1" height="1"/>
			<rect x="1" y="2" class="st0" width="1" height="1"/>
			<rect x="1" y="1" class="st0" width="1" height="1"/>
			<rect x="1" width="1" height="1"/>
			<rect y="7" width="1" height="1"/>
			<rect y="6" width="1" height="1"/>
			<rect y="5" width="1" height="1"/>
			<rect y="3" width="1" height="1"/>
			<rect y="2" width="1" height="1"/>
			<rect y="1" width="1" height="1"/>
		</g>
		<g>
		</g>
	</g>
</g>
</svg>
